# xmcd
#
# Track frame offsets:
#	150
#	14215
#	27912
#	43458
#	58666
#	74134
#	89118
#	101638
#	115621
#	130020
#	143881
#	158905
#	173892
#	189839
#	204350
#	218290
#	232065
#	245599
#	258927
#	272867
#	287317
#	299548
#	312999
#
# Disc length: 4356 seconds
#
# Revision: 4
# Processed by: cddbd v1.5.2PL0 Copyright (c) Steve Scherf et al.
# Submitted via: EZCDAudioConverter 2.2.2.1
#
DISCID=63110217
DTITLE=Jimmie Rodgers - The Singing Brakeman
DYEAR=1900
DGENRE=Country
TTITLE0=The Soldier's Sweetheart 
TTITLE1=Sleep, Baby Sleep 
TTITLE2=Ben Dewberry's Final Run 
TTITLE3=Mother Was A Lady 
TTITLE4=Blue Yodel - ("T" For Texas)
TTITLE5=Away Out On The Mountain 
TTITLE6=Dear Old Sunny South By The Sea
TTITLE7=Treasures Untold 
TTITLE8=The Brakeman's Blues 
TTITLE9=The Sailor's Plea 
TTITLE10=In The Jailhouse Now 
TTITLE11=My Lovin' Gal, Lucille (Blue Yodel #2)
TTITLE12=Memphis Yodel 
TTITLE13=Evening Sun Yodel (Blue Yodel #3)
TTITLE14=My Old Pal 
TTITLE15=My Little Old Home Down In New Orleans
TTITLE16=You And My Old Guitar 
TTITLE17=Daddy And Home
TTITLE18=My Little Lady 
TTITLE19=Lullaby Yodel 
TTITLE20=Never No Mo' Blues 
TTITLE21=My Carolina Sunshine Girl 
TTITLE22=Blue Yodel #4 
EXTD=
EXTT0=
EXTT1=
EXTT2=
EXTT3=
EXTT4=
EXTT5=
EXTT6=
EXTT7=
EXTT8=
EXTT9=
EXTT10=
EXTT11=
EXTT12=
EXTT13=
EXTT14=
EXTT15=
EXTT16=
EXTT17=
EXTT18=
EXTT19=
EXTT20=
EXTT21=
EXTT22=
PLAYORDER=
